<svg version="1.0" id="Layer_1" xmlns="http://www.w3.org/2000/svg" xmlns:xlink="http://www.w3.org/1999/xlink" x="0px" y="0px"
	 width="1660px" height="750px" viewBox="0 0 1660 750" xml:space="preserve">

	 <g id="svg-person-0-off" class="click-path" cursor="none" pointer-events="all" transform="translate(-20,-146)">
		<path style="fill:#ffcc00; opacity: 0;" d="M241,896c-15.334,0-30.667,0-46,0c-0.44-3.452-0.77-6.923-1.34-10.354c-2.737-16.47-5.289-32.953-2.463-49.681
			c3.343-19.79,6.538-39.61,10.343-59.312c1.53-7.92,0.605-15.639-0.199-23.329c-1.939-18.546-5.101-36.973-6.695-55.541
			c-1.057-12.301-1.681-24.463-7.557-35.652c-2.498-4.756-4.913-9.556-7.364-14.336c-4.057-7.908-7.236-16.031-7.645-25.115
			c-0.085-1.889-1.84-3.983-3.331-5.48c-6.077-6.107-12.792-11.636-18.425-18.113c-5.609-6.449-5.122-10.266-0.635-17.545
			c4.894-7.939,9.686-15.957,14.079-24.177c0.935-1.75,0.797-5.098-0.308-6.704c-2.421-3.52-5.84-6.342-8.743-9.547
			c-6.674-7.368-13.295-14.785-19.914-22.203c-5.397-6.049-10.229-12.733-16.276-18.034c-6.854-6.007-12.357-12.679-15.197-21.23
			c-1.024-3.086-1.21-6.906-0.411-10.042c1.472-5.781,4.218-11.225,5.951-16.955c2.341-7.74,5.949-14.377,12.887-19.011
			c2.002-1.337,3.39-3.619,4.994-5.523c7.828-9.292,15.644-18.594,23.438-27.914c1.273-1.523,2.7-3.013,3.573-4.76
			c5.287-10.567,9.767-21.605,15.836-31.691c4.91-8.161,11.565-15.299,17.727-22.655c1.112-1.328,3.535-1.928,5.438-2.159
			c8.375-1.017,12.607-8.435,19.203-12.161c0.066-0.038-0.155-0.587-0.246-0.9c-2.812-0.17-6.341,0.681-8.293-0.698
			c-6.021-4.254-9.345-10.969-8.585-18.047c1.666-15.523,3.724-31.094,7.103-46.316c3.161-14.24,7.616-28.282,12.65-41.989
			c4.283-11.658,12.328-20.751,24.793-24.348c7.449-2.149,15.262-3.005,22.836-4.767c8.446-1.964,15.985,0.219,21.511,6.274
			c13.274,14.544,22.613,31.286,24.88,51.266c0.998,8.798-0.206,17.122-5.79,24.512c-1.3,1.72-1.83,4.34-1.939,6.583
			c-0.441,9.09-1.381,18.263-0.616,27.276c0.835,9.848-9.184,20.501-19.596,16.066c-1.118-0.476-3.6,0.08-4.139,0.959
			c-0.672,1.098-0.604,3.739,0.23,4.463c2.396,2.081,5.133,4.302,8.103,5.095c12.265,3.274,21.465,10.438,26.113,22.011
			c3.054,7.603,3.797,16.115,5.799,24.164c1.556,6.255,3.054,12.577,5.332,18.583c1.93,5.084,5.034,9.713,7.451,14.625
			c3.208,6.519,8.128,12.885,8.98,19.731c1.797,14.432,2.336,29.17,1.758,43.717c-1.255,31.61-3.57,63.177-5.367,94.766
			c-0.377,6.613-0.988,13.283,2.771,19.413c0.844,1.378,0.602,3.421,0.954,5.8c-2.767-0.794-4.783-1.814-6.812-1.842
			c-2.416-0.031-5.454,0.043-7.128,1.411c-2.708,2.212-0.611,4.985,0.599,7.62c2.135,4.651,4.438,9.375,5.535,14.321
			c2.137,9.644,2.857,19.621,5.288,29.175c6.698,26.328,9.078,53.109,9.988,80.139c0.576,17.112,2.067,34.195,2.501,51.309
			c0.309,12.174,3.436,24.386,0.138,36.555c-1.453,5.361-3.363,10.599-4.778,15.969c-1.957,7.425-3.066,15.121-5.564,22.347
			C333.311,866.803,327.515,881.353,322,896c-16,0-32,0-48,0c0.25-1.126,0.656-2.242,0.727-3.38
			c1.297-21.094,4.585-41.675,14.279-60.844c1.614-3.19,2.096-7.202,2.187-10.857c0.143-5.753-0.207-11.557-0.854-17.281
			c-1.459-12.894-2.209-25.993-5.179-38.552c-2.579-10.902-7.798-21.182-11.908-31.714c-0.266-0.682-1.025-1.169-2.099-2.339
			c-0.817,2.018-1.482,3.459-1.993,4.953c-2.897,8.474-6.669,16.782-8.375,25.493c-1.726,8.812-1.383,18.027-1.968,27.064
			c-0.105,1.637-0.346,3.266-0.467,4.902c-0.986,13.263-8.59,24.228-12.585,36.44c-1.672,5.111-3.629,10.393-3.852,15.665
			C241.203,862.351,241.247,879.182,241,896z M180.101,506.322c-10.168-10.524-11.579-24.765-16.133-37.696
			c-8.672,5.774-10.39,6.221-4.256,14.769c0.578,0.805,1.187,1.615,1.6,2.506C165.394,494.706,170.727,502.368,180.101,506.322z"/>
</g>

<g id="svg-person-1-off" class="click-path" cursor="none" pointer-events="all" transform="translate(219,-146)">
 <path style="fill:#ffcc00; opacity: 0;" d="M113,899c-20.667,0-41.333,0-62,0c1.756-16.256,3.498-32.513,5.32-48.761c0.08-0.711,1.106-1.271,1.362-2.014
	 c1.422-4.141,3.099-8.241,3.998-12.501c0.905-4.289-0.382-9.671,1.78-12.917c3.202-4.809,3.638-9.629,2.251-14.167
	 c-3.02-9.882-2.271-19.771-1.92-29.745c0.111-3.155,0.281-6.362-0.128-9.474c-2.603-19.802-1.476-39.566,0.058-59.363
	 c0.191-2.463-1.155-5.272-2.425-7.57c-2.063-3.734-5.657-6.879-6.825-10.803c-3.112-10.449-4.247-21.217-1.519-32.062
	 c0.443-1.763,0.954-3.605,0.867-5.384c-0.281-5.738-1-11.457-1.234-17.195c-0.469-11.439-0.685-22.891-1.097-34.332
	 c-0.147-4.09-0.578-8.168-0.846-12.254c-0.627-9.561-1.419-19.116-1.765-28.688c-0.148-4.108-0.269-8.642,1.273-12.27
	 c1.581-3.719,1.239-6.789,0.907-10.491c-0.533-5.938-0.715-12.181,0.614-17.91c0.82-3.532,6.178-5.971,2.398-10.747
	 c-0.156-0.197,0.411-0.879,0.484-1.36c0.712-4.659,1.498-9.31,2.048-13.988c0.562-4.777,0.535-9.645,1.375-14.364
	 c2.184-12.267,6.802-24.541,6.417-36.684c-0.304-9.596,2.238-17.032,5.019-25.697c9.493-29.58,27.529-50.637,55.472-63.982
	 c18.343-8.76,35.458-19.628,49.066-35.119c1.689-1.923,2.737-4.778,3.186-7.357c1.656-9.533-2.548-18.31-4.017-27.451
	 c-0.53-3.303-0.616-6.811-5.482-6.723c-0.835,0.015-2.083-1.213-2.482-2.148c-2.613-6.106-5.447-12.166-7.412-18.488
	 c-1.642-5.283,1.063-8.943,6.215-10.888c1.125-0.425,2.125-2.282,2.413-3.643c1.822-8.612,2.892-17.416,5.202-25.886
	 c8.113-29.751,45.488-38.749,65.647-24.581c10.517,7.391,15.984,18.952,19.958,30.329c2.82,8.073,1.369,17.663,1.652,26.581
	 c0.089,2.804-0.312,5.214,2.463,7.502c1.616,1.333,2.71,5.207,1.969,7.145c-2.482,6.486-5.802,12.666-9.047,18.833
	 c-0.568,1.079-2.684,2.437-3.479,2.124c-4.833-1.901-5.261,1.596-6.245,4.601c-0.519,1.583-0.962,3.218-1.708,4.693
	 c-3.99,7.881-4.644,14.791,2.287,22.125c5.002,5.294,9.178,10.822,16.794,12.363c2.228,0.451,4.278,1.807,6.391,2.791
	 c14.319,6.672,28.676,13.268,42.917,20.106c3.064,1.472,6.274,3.34,8.442,5.864c10.304,11.987,20.396,24.165,30.266,36.512
	 c2.321,2.904,4.222,6.555,5.069,10.156c4.233,17.981,8.79,35.941,11.746,54.149c1.836,11.312,4.693,22.762,3,34.498
	 c-0.164,1.135,1.005,2.403,1.146,3.655c0.211,1.867,0.618,4.011-0.056,5.618c-1.461,3.487-2.152,6.439-0.675,10.396
	 c1.492,3.993,2.18,8.863,1.4,13.006c-1.601,8.513-4.383,16.807-6.74,25.174c-2.157,7.655-3.82,15.513-6.705,22.889
	 c-8.833,22.594-17.755,45.172-27.548,67.356c-2.551,5.778-7.977,10.579-12.866,14.95c-4.638,4.146-10.419,6.986-15.442,10.744
	 c-1.384,1.034-2.396,3.213-2.653,5c-1.298,9.035-1.564,18.275-3.534,27.146c-4.835,21.768-10.942,43.261-15.521,65.077
	 c-4.023,19.171-6.308,38.7-10.05,57.937c-2.262,11.622,6.797,22.385,1.765,33.971c-0.051,0.117,0.102,0.312,0.126,0.475
	 c2.146,14.383,3.241,28.783,0.657,43.238c-20.666,0-41.334,0-62,0c0.257-7.787,0.48-15.576,0.779-23.361
	 c0.328-8.592,1.988-17.372,0.723-25.715c-1.162-7.669-4.447-14.865-5.254-23.025c-1.532-15.495-5.334-30.763-8.115-46.139
	 c-1.774-9.808-3.166-19.69-5.172-29.449c-2.171-10.561-4.842-21.02-7.327-31.516c-0.882-3.725-1.642-7.504-2.892-11.107
	 c-0.53-1.525-2.179-2.663-3.32-3.978c-0.955,1.237-2.172,2.351-2.824,3.73c-4.974,10.541-9.932,21.092-14.713,31.721
	 c-6.682,14.856-13.505,29.661-19.685,44.727c-3.528,8.602-5.969,17.656-8.766,26.549c-1.739,5.529-3.052,11.196-4.907,16.684
	 c-0.857,2.537-1.972,5.895-3.983,6.949c-4.579,2.402-7.01,7.204-6.286,10.492c1.108,5.03-1.031,8.247-2.219,12.367
	 c-1.391,4.824-0.989,10.153-1.47,15.254C114.757,881.792,113.861,890.395,113,899z M307.254,479.99
	 c-2.246,4.667-4.407,9.075-6.48,13.524c-0.483,1.039-1.096,2.287-0.925,3.318c1.384,8.308-4.733,16.043-1.787,24.512
	 c0.398,1.143-0.757,2.798-1.113,4.236c-1.025,4.142-2.379,8.246-2.929,12.453c-0.918,7.016-1.347,14.098-1.912,21.159
	 c-0.315,3.939-0.905,7.916-0.641,11.828c0.484,7.154,2.688,14.393,1.973,21.371c-0.684,6.673,0.74,12.723,1.772,18.984
	 c0.193,1.176,1.698,3.08,2.444,3.01c1.326-0.125,2.965-1.233,3.701-2.412c1.476-2.363,2.197-5.191,3.645-7.576
	 c4.177-6.886,5.759-14.6,7.166-22.307c2.312-12.664,4.231-25.4,6.316-38.105c0.134-0.812,0.346-1.623,0.38-2.441
	 c0.254-6.105,0.006-12.28,0.877-18.293c0.519-3.577-0.688-5.472-2.887-7.784c-1.686-1.772-3.305-4.214-3.647-6.55
	 C311.773,499.166,312.679,488.975,307.254,479.99z M112.742,498.536c-1.835,3.236-4.273,6.177-5.198,9.534
	 c-0.988,3.583-0.319,7.587-0.776,11.359c-0.942,7.773-1.053,7.76,1.322,9.592c0.87-2.245,1.795-4.319,2.481-6.471
	 c1.749-5.479,2.773-11.293,5.261-16.401C117.998,501.703,117.163,499.831,112.742,498.536z M104.505,545.089
	 c-4.889,1.854-8.049,16.071-5.578,23.45C105.86,566.227,107.015,557.77,104.505,545.089z M94.819,583.789
	 c5.351-2.455,5.604-4.16,2.756-12.029C96.642,575.833,95.855,579.269,94.819,583.789z"/>
</g>

<g id="svg-person-2-off" class="click-path" cursor="none" pointer-events="all" transform="translate(435,-148)">
 <path style="fill:#ffcc00; opacity: 0;" d="M172,898c-18.333,0-36.667,0-55,0c0.792-9.395,1.529-18.794,2.388-28.182c0.93-10.161,2.649-20.302,2.816-30.471
	 c0.294-17.938-1.277-35.725-5.059-53.402c-2.918-13.641-3.987-27.673-6.066-41.502c-0.3-1.996-1.352-4.065-2.594-5.687
	 c-1.817-2.371-4.133-1.444-5.272,0.645c-0.681,1.247-0.457,3.458,0.196,4.842c0.784,1.664,2.455,2.911,3.742,4.339
	 c-0.373,0.678-0.746,1.356-1.119,2.034c-3.179-0.743-6.715-0.848-9.452-2.381c-4.015-2.25-7.311-5.743-11.179-8.307
	 c-6.26-4.147-10.01-9.914-12.406-16.884c-1.238-3.602-2.261-7.982-4.898-10.229c-3.726-3.174-3.043-6.264-2.98-10.177
	 c0.314-19.456,0.289-38.918,0.266-58.378c-0.024-20.443,0.172-40.896-0.413-61.326c-0.349-12.184-2.029-24.328-3.08-36.492
	 c-0.327-3.787-1.229-7.681-0.694-11.355c1.581-10.852,4.413-21.548,5.555-32.432c2.906-27.675,10.014-54.34,18.539-80.66
	 c5.641-17.415,12.271-34.506,18.143-51.849c2.252-6.652,6.032-12.07,11.884-15.479c12.468-7.261,25.266-13.956,36.847-20.291
	 c0.661-2.355,1.808-4.16,1.325-5.225c-0.852-1.875-2.744-3.261-4.116-4.921c-1.125-1.362-2.129-2.825-3.188-4.243
	 c0.168-0.09,0.337-0.18,0.505-0.271c2.92,2.422,5.839,4.845,8.795,7.297c-1.887-8.18-5.211-15.734-5.051-23.214
	 c0.44-20.587,2.324-41.144,3.704-61.707c0.086-1.279,0.891-2.494,1.129-3.781c0.952-5.143,2.483-10.295,2.544-15.459
	 c0.086-7.288,4.697-14.912,11.746-16.642c5.286-1.297,9.334-4.362,11.119-9.081c1.428-3.776,4.058-5.089,7.066-6.276
	 c13.521-5.336,27.329-5.099,40.397,0.605c20.487,8.942,30.819,26.598,37.019,47.044c2.314,7.638,3.189,15.747,5.869,23.229
	 c3.489,9.743,5.485,20.834,16.717,25.209c-2.833,1.638-5.602,3.239-9.171,5.303c2.082,2.281,3.834,4.362,5.759,6.27
	 c2.551,2.528,5.446,4.59,3.718,9.142c-0.551,1.45,0.583,4.553,1.907,5.405c1.222,0.786,3.738-0.403,5.673-0.783
	 c0.848-0.167,1.665-0.486,2.496-0.735c-0.123,1.01,0.124,2.421-0.446,2.947c-1.154,1.065-2.752,1.65-4.167,2.433
	 c0.411,0.545,0.822,1.091,1.233,1.637c1.554,0.396,3.111,0.781,4.661,1.192c14.027,3.723,14.306,4.299,14.796,18.592
	 c0.117,3.408,1.38,6.958,2.875,10.078c1.158,2.417,3.323,4.469,5.393,6.282c0.998,0.874,2.806,0.825,4.247,1.193
	 c0.178-1.631,0.739-3.346,0.406-4.865c-0.249-1.137-1.65-2.022-3.114-3.667c6.614,2.1,9.3,8.494,5.078,12.009
	 c-4.841,4.029-3.244,7.636-1.64,11.854c9.093,23.908,15.041,48.628,19.727,73.741c3.446,18.473,7.85,36.766,11.762,55.152
	 c0.445,2.092,0.704,4.278,0.657,6.412c-0.217,9.886-2.809,19.805,0.763,29.638c0.519,1.43,0.215,3.367-0.245,4.909
	 c-2.209,7.394-4.638,14.722-6.917,22.096c-1.334,4.317-2.826,8.655,1.404,12.457c0.683,0.614,0.957,2.125,0.821,3.141
	 c-1.55,11.596-3.252,23.171-4.818,34.765c-0.311,2.297-0.426,4.664-0.274,6.975c0.861,13.174-0.23,26.129-2.532,39.165
	 c-1.838,10.408-2.705,21.159-2.399,31.71c0.179,6.179-2.226,10.854-4.706,15.615c-3.515,6.744-8.168,12.887-11.938,19.511
	 c-2.028,3.563-4.041,5.458-8.596,4.958c-7.771-0.854-11.067,2.528-11.272,10.324c-0.311,11.751-1.279,23.529-0.791,35.246
	 c0.615,14.785,2.218,29.542,3.792,44.269c0.729,6.817,2.391,13.535,3.647,20.294c0.182,0.979,0.558,1.926,0.677,2.908
	 c0.322,2.662,0.566,5.334,0.818,8.004c0.124,1.31,0.061,2.65,0.311,3.932c1.645,8.411,7.138,15.508,6.942,24.82
	 c-0.116,5.535,3.683,11.152,5.721,16.732c-20,0-40,0-60,0c-0.175-2.092-0.992-4.395-0.39-6.231
	 c1.246-3.804-0.355-5.747-3.067-8.016c-2.597-2.172-5.654-4.823-6.527-7.838c-3.139-10.841-5.506-21.909-8.03-32.923
	 c-1.472-6.42-2.39-12.979-4.094-19.332c-2.006-7.479-4.488-14.838-6.952-22.186c-3.37-10.053-6.063-20.45-10.561-29.986
	 c-10.828-22.963-20.877-46.103-25.564-71.238c-0.668-3.584-1.526-7.256-3.084-10.51c-1.27-2.649-3.719-4.734-5.645-7.07
	 c-0.365,0.303-0.73,0.606-1.096,0.91c0.341,2.09,0.883,4.171,0.992,6.273c0.798,15.559-1.372,30.836-4.4,46.041
	 c-0.646,3.242-0.447,6.659-1.165,9.879c-1.912,8.578-5.352,17.009-5.937,25.65c-1.223,18.053-1.261,36.202-1.291,54.313
	 c-0.027,16.603,2.792,33.548-7.642,48.478c-0.269,0.385-0.352,0.933-0.421,1.419C174.075,883.088,173.04,890.544,172,898z
		M305.867,664.289c9.747-14.998,12.442-30.9,9.434-49.292c-4.131,3.351-6.921,5.956-10.046,8.067
	 c-4.645,3.139-5.602,7.633-5.146,12.645c0.269,2.947,1.071,5.85,1.668,8.766C303.129,651.08,304.502,657.682,305.867,664.289z
		M315.441,331.938c-2.94-1.754-5.17-3.169-7.517-4.354c-0.235-0.119-1.179,1.167-1.794,1.802
	 c2.116,1.695,4.199,3.437,6.412,4.995C312.717,334.504,313.788,333.353,315.441,331.938z M315.436,713.402
	 c3.427-4.086,3.563-8.565,0-12.551C315.436,705.348,315.436,709.08,315.436,713.402z"/>
</g>

<g id="svg-person-3-off" class="click-path" cursor="none" pointer-events="all" transform="translate(664,-146)">
 <path style="fill:#ffcc00; opacity: 0;" d="M218,895c-24.333,0-48.667,0-73,0c-3.153-8.582-6.654-17.058-9.322-25.789c-1.469-4.81-2.87-10.291-2.002-15.05
	 c3.394-18.614,1.093-37.206,0.646-55.771c-0.312-12.957-2.243-25.869-3.286-38.814c-1.833-22.738-4.125-45.461-5.125-68.238
	 c-0.896-20.402-0.789-40.883-0.213-61.303c0.375-13.269,2.012-26.407-3.106-39.238c-2.367-5.933-2.917-12.412-7.159-17.811
	 c-5.874-7.475-5.593-7.924-14.286-4.35c-3.923,1.613-6.346,0.936-8.898-2.467c-4.693-6.257-9.732-12.268-14.878-18.164
	 c-1.805-2.067-4.325-3.521-6.554-5.207c-9.118-6.898-19.261-12.805-27.084-20.944c-7.503-7.806-13.179-17.59-18.638-27.091
	 c-9.717-16.912-9.558-33.767,1.812-50.293c7.834-11.387,14.697-23.443,22.542-34.823c6.5-9.428,13.902-18.229,20.714-27.448
	 c5.617-7.603,10.902-15.449,16.442-23.109c2.062-2.852,3.947-6.24,6.769-8.042c5.005-3.196,10.769-5.171,16.031-8
	 c19.611-10.546,39.211-21.116,58.628-32.012c2.396-1.344,4.308-4.455,5.333-7.167c2.935-7.757-1.753-14.121-4.559-20.81
	 c-1.437-3.426-3.169-6.143-7.391-6.425c-1.133-0.076-2.966-1.137-3.159-2.03c-1.88-8.719-4.354-17.446-4.878-26.276
	 c-0.398-6.719,2.543-13.581,2.632-20.396c0.132-10.206,3.783-18.08,12.114-23.831c4.111-2.838,8.188-5.74,12.44-8.354
	 c12.097-7.436,24.701-8.564,37.638-2.352c4.495,2.159,8.748,4.818,13.16,7.159c5.661,3.004,8.725,7.791,10.678,13.802
	 c2.674,8.231,3.877,17.08,9.455,24.208c0.445,0.569,0.38,1.599,0.413,2.421c0.302,7.451,0.864,14.911,0.686,22.352
	 c-0.058,2.392-1.599,5.225-3.338,6.992c-2.944,2.989-5.2,12.107-3.126,15.579c2.477,4.143,5.122,8.197,7.362,12.464
	 c2.143,4.083,5.211,6.564,9.596,8.079c15.738,5.437,31.369,11.185,47.066,16.745c20.056,7.104,36.729,17.984,44.686,39.003
	 c1.101,2.908,3.258,5.404,4.831,8.146c13.006,22.674,26.237,45.226,38.794,68.147c2.848,5.199,4.554,11.664,4.701,17.597
	 c0.817,33.046-11.416,60.58-37.416,81.18c-10.989,8.707-19.296,19.189-25.937,31.206c-2.241,4.058-4.459,5.415-8.503,2.568
	 c-3.055-2.149-4.999-1.062-6.62,2.193c-3.283,6.589-3.426,13.432-2.5,20.483c0.256,1.954,0.789,4.121,0.233,5.889
	 c-2.46,7.816-2.385,15.629-0.827,23.549c0.145,0.734,0.102,1.928-0.35,2.292c-3.602,2.905-1.843,6.327-1.117,9.661
	 c1.908,8.773,4.581,17.463,5.548,26.338c1.343,12.33,1.375,24.801,2.028,37.208c1.156,21.934,1.717,43.925,3.743,65.778
	 c1.634,17.604,2.984,35.1,1.728,52.771c-0.194,2.733,0.675,6.244,2.382,8.282c5.88,7.02,7.832,14.751,6.709,23.705
	 c-0.778,6.216-2.637,12.774,3.267,18.004c1.222,1.083,1.643,3.254,2.076,5.011c1.869,7.58,3.604,15.192,5.389,22.793
	 c-27.667,0-55.333,0-83,0c-0.718-6.916-0.999-13.911-2.246-20.73c-2.513-13.743-5.831-27.339-8.312-41.087
	 c-4.343-24.065-7.827-48.295-12.578-72.275c-3.843-19.395-8.952-38.542-13.717-57.744c-0.424-1.71-2.447-3.022-3.728-4.52
	 c-0.542,1.604-1.197,3.183-1.608,4.82c-2.366,9.421-1.666,19.247-5.779,28.631c-3.223,7.354-5.057,16.374-4.152,24.27
	 c2.197,19.187-0.102,37.853-3.211,56.564c-1.248,7.51-3.433,14.859-4.91,22.337c-0.5,2.535-1.162,5.886,0.014,7.754
	 c4.614,7.333,3.079,14.931,2.634,22.747c-0.293,5.136,0.927,10.419,1.926,15.547C215.232,885.938,216.753,890.442,218,895z
		M109.141,526.822c0.549-0.206,1.099-0.412,1.648-0.618c0.18-1.862,0.568-3.731,0.503-5.584
	 c-0.291-8.312-1.655-16.709-0.882-24.91c1.499-15.891,4.236-31.664,6.293-47.506c0.288-2.215-0.081-4.641-0.737-6.788
	 c-0.244-0.799-2.542-1.838-3.297-1.482c-10.097,4.751-21.225,8.561-22.312,22.39c-0.153,1.946-1.042,3.851-1.698,5.738
	 c-1.232,3.551-1.687,6.859,0.18,10.56c1.012,2.007,0.091,4.898,0.576,7.281c1.214,5.97,2.2,12.077,4.312,17.743
	 c1.458,3.91,4.651,7.17,7.053,10.731C103.576,518.52,106.355,522.673,109.141,526.822z M347.338,467.463
	 c-0.524-1.057-0.604-1.419-0.828-1.628c-0.479-0.451-0.985-0.916-1.563-1.214c-7.634-3.933-11.77-10.7-14.264-18.463
	 c-1.511-4.705-1.838-9.779-3.128-14.571c-0.463-1.719-2.192-3.097-3.344-4.631c-0.791,1.701-2.336,3.439-2.255,5.098
	 c0.666,13.623,1.206,27.276,2.631,40.831c1.412,13.428,0.916,26.515-3.281,39.396c-0.407,1.25-1.035,2.881-0.572,3.875
	 c1.182,2.54,2.923,4.819,4.439,7.202c1.364-1.653,3.293-3.098,3.991-4.995c2.671-7.264,4.812-14.721,7.441-22.001
	 c0.929-2.572,2.767-4.803,4.04-7.267c0.803-1.551,2.097-3.376,1.847-4.854C341.373,477.641,341.851,471.635,347.338,467.463z"/>
</g>

<g id="svg-person-4-off" class="click-path" cursor="none" pointer-events="all" transform="translate(930,-150)">
 <path style="fill:#ffcc00; opacity: 0;" d="M111,896c0.078-17.495,0.607-35.006,0.036-52.48
	 c-0.27-8.237-2.479-16.443-4.244-24.569c-0.298-1.376-2.638-2.773-4.306-3.303c-6.031-1.913-12.243-3.259-18.266-5.193
	 c-8.074-2.594-9.47-5.623-9.409-14.053c0.112-15.486-0.327-30.979-0.616-46.467c-0.382-20.485-0.847-40.97-1.265-61.455
	 c-0.856-41.942,5.726-83.011,14.812-123.755c0.927-4.158,0.329-6.174-3.688-8.117c-11.392-5.514-22.506-11.598-33.758-17.403
	 c-5.601-2.89-8.698-7.628-10.131-13.552c-2.176-8.997-1.781-18.122-0.579-27.163c2.037-15.32,4.378-30.602,6.703-45.882
	 c2.326-15.294,3.593-30.884,7.525-45.763c3.971-15.027,9.884-29.684,16.315-43.883c9.134-20.167,19.333-39.861,29.448-59.568
	 c5.471-10.661,12.194-20.695,17.384-31.477c2.337-4.856,2.839-10.811,3.251-16.336c1.177-15.785,4.478-31.141,11.89-45.016
	 c8.046-15.062,22.273-22.589,38.813-22.375c13.817,0.179,28.157,1.992,41.252,6.219c20.579,6.644,29.939,23.673,33.439,44.216
	 c0.252,1.475,0.526,2.999,0.419,4.473c-1.717,23.765,8.365,44.444,16.822,65.617c3.935,9.85,6.655,20.18,10.457,30.089
	 c0.913,2.38,3.921,3.971,6.002,5.885c2.604,2.395,5.983,4.299,7.748,7.195c9.479,15.557,14.121,32.824,17.712,50.559
	 c3.855,19.044,8.61,37.908,13.082,56.824c0.406,1.718,1.537,3.288,2.451,4.856c1.687,2.895,1.992,5.769-0.513,8.252
	 c-3.329,3.302-3.227,7.248-2.148,11.182c3.221,11.742,1.509,23.619,0.387,35.286c-0.861,8.963-3.923,17.755-6.47,26.487
	 c-0.607,2.084-2.745,4.522-4.735,5.229c-3.667,1.302-7.902,2.427-11.619,1.841c-5.928-0.936-10.787,0.537-15.547,3.568
	 c-0.42,0.268-0.886,0.464-1.335,0.682c-10.766,5.221-10.253,5.133-8.28,16.754c4.567,26.902,9.068,53.836,12.625,80.885
	 c1.747,13.292,0.996,26.893,1.977,40.31c1.505,20.597,3.671,41.144,5.287,61.733c1.261,16.064,2.265,32.153,3.051,48.248
	 c0.233,4.782-1.572,8.201-6.981,10.419c-3.857,1.581-7.352,3.022-11.508,3.192c-0.943,0.039-1.824,1.612-2.79,2.534
	 c-0.833-0.769-1.734-1.601-3.354-3.095c-1.143,3.65-2.084,6.66-3.309,10.572c-0.212-4.534-0.36-8.157-0.556-11.777
	 c-0.272-5.042-4.058-3.765-7.025-3.812c-2.993-0.049-4.216,1.283-4.602,4.508c-0.397,3.316-2.795,6.415-3.088,9.718
	 c-0.731,8.226-1.212,16.525-0.978,24.772c0.422,14.805,1.441,29.592,2.211,44.387c-20,0-40,0-60,0
	 c1.106-21.873-5.067-42.479-10.886-64.408c-0.825,1.935-1.298,2.726-1.506,3.58c-2,8.227-4.05,16.442-5.902,24.702
	 c-2.685,11.979-2.54,24.043-0.706,36.126C151.667,896,131.333,896,111,896z"/>
</g>

<g id="svg-person-5-off" class="click-path" cursor="none" pointer-events="all" transform="translate(1117,-152)">
 <path style="fill:#ffcc00; opacity: 0;" d="M122,897c-0.51-6.727-2.742-13.916-1.09-20.062
	 c2.011-7.483,1.195-14.779,1.884-22.11c0.531-5.654-0.809-11.505-0.098-17.113c0.672-5.303,2.437-10.624,4.623-15.536
	 c2.648-5.949,2.591-11.681-0.099-17.208c-4.595-9.441-6.972-19.334-7.955-29.727c-1.472-15.558-2.455-31.225-5.119-46.59
	 c-3.055-17.62-2.448-35.142-1.694-52.779c0.277-6.478,0.208-12.972,0.18-19.458c-0.005-1.104-0.368-2.363-0.974-3.279
	 c-5.409-8.183-10.925-16.294-16.369-24.453c-0.917-1.375-1.771-2.824-2.425-4.338c-5.018-11.616-9.728-23.373-15.012-34.865
	 c-9.532-20.73-14.88-42.745-20.276-64.736c-1.006-4.099-0.933-8.659-0.433-12.896c2.302-19.506,6.233-38.927,6.944-58.474
	 c0.414-11.371,4.995-21.2,6.671-31.957c1.552-9.964,3.838-20.131,7.851-29.312c4.696-10.742,11.995-20.314,17.424-30.777
	 c3.497-6.737,9.311-9.38,15.614-12.136c17.843-7.803,35.625-15.75,53.315-23.892c7.585-3.491,9.609-9.147,6.921-19.805
	 c-2.029-8.046-4.958-15.864-7.427-23.802c-2.345-7.54-4.689-15.082-6.844-22.677c-0.375-1.323-0.371-3.42,0.418-4.292
	 c3.281-3.625,1.784-7.822,2.077-11.851c1.459-20.093,6.419-37.562,25.707-49.308c21.635-13.175,58.241,2.364,62.403,26.953
	 c1.384,8.171,2.058,16.46,3.169,24.68c0.183,1.351,1.102,2.587,1.425,3.938c0.657,2.746,2.119,5.771,1.514,8.259
	 c-2.014,8.277-5.043,16.302-7.223,24.546c-2.742,10.375-5.16,20.843-7.442,31.331c-0.779,3.575,0.683,6.403,4.387,7.972
	 c11.629,4.924,23.197,9.989,34.784,15.011c12.035,5.216,24.954,8.66,35.297,17.276c1.683,1.402,3.009,3.367,4.127,5.289
	 c11.115,19.113,17.062,39.925,20.96,61.571c1.608,8.932,5.396,17.457,7.884,26.255c0.485,1.717,0.235,4.757-0.876,5.596
	 c-2.999,2.262-3.455,4.934-3.363,8.277c0.41,14.986-0.367,30.091,1.239,44.941c3.216,29.723-7.676,56.24-16.98,83.191
	 c-3.527,10.217-7.945,20.123-11.617,30.295c-0.651,1.803,0.411,4.209,0.615,6.344c0.116,1.226,0.536,2.68,0.058,3.658
	 c-1.68,3.436-3.627,6.748-5.622,10.015c-0.458,0.751-1.597,1.706-2.279,1.604c-6.419-0.959-6.342,3.821-6.335,7.636
	 c0.015,8.155,0.989,16.312,0.906,24.462c-0.184,18.117-0.425,36.248-1.318,54.339c-0.632,12.783-1.781,25.605-3.789,38.237
	 c-1.869,11.761-4.585,23.473-8.02,34.877c-3.469,11.522-3.37,22.9-1.681,34.516c0.739,5.083,1.41,10.177,2.092,15.27
	 c0.109,0.82-0.054,1.707,0.187,2.478c4.687,15.03-0.24,29.768-1.314,44.62c-20.667,0-41.333,0-62,0
	 c-0.805-1.76-2.192-3.481-2.309-5.285c-0.416-6.441-0.669-12.921-0.448-19.367c0.138-4.018,0.17-8.665,2.148-11.852
	 c3.307-5.326,3.097-9.426,0.097-14.721c-1.976-3.487-2.941-8.132-2.705-12.162c0.432-7.377,0.83-14.518-1.683-21.688
	 c-1.243-3.547-1.444-7.489-1.897-11.279c-1.639-13.702-3.006-27.438-4.835-41.113c-1.031-7.704-2.708-15.326-4.231-22.957
	 c-0.314-1.576-1.237-3.03-1.88-4.54c-0.442,0.067-0.884,0.136-1.326,0.203c-0.357,1.712-0.862,3.407-1.044,5.138
	 c-0.591,5.633-0.45,11.421-1.716,16.888c-2.354,10.162-6.078,20.021-8.188,30.222c-3.389,16.385-7.129,32.668-9.031,49.424
	 c-1.137,10.013-4.121,19.243,2.734,28.103c-0.895,11.662-1.791,23.325-2.686,34.987C166,897,144,897,122,897z M110.238,589.74
	 c0.84-0.012,1.679-0.024,2.519-0.037c0.728-2.473,1.646-4.908,2.152-7.426c2.917-14.492,5.749-29.002,8.566-43.514
	 c0.282-1.455,0.333-2.966,0.376-4.454c0.323-10.959-0.313-22.046,1.166-32.845c1.687-12.318-1.724-23.319-5.592-34.454
	 c-0.652-1.876-2.042-3.495-3.59-6.06c-1.073,2.13-1.736,3.215-2.19,4.381c-5.176,13.313-10.081,26.74-15.569,39.922
	 c-2.98,7.158-3.028,13.875-1.001,21.312c2.876,10.555,4.716,21.395,6.926,32.127C106.129,569.032,108.163,579.391,110.238,589.74
	 z M297.066,574.51c0.691-0.018,1.383-0.034,2.074-0.051c0.393-1.887,0.882-3.759,1.16-5.662
	 c2.28-15.623,4.68-31.232,6.672-46.894c0.554-4.351,0.594-9.029-0.386-13.266c-3.147-13.609-6.864-27.088-10.422-40.602
	 c-0.331-1.255-1.089-2.398-2.179-4.726c-3.05,9.933-8.564,17.585-7.235,27.356c0.501,3.683-0.886,7.583-0.871,11.382
	 c0.019,4.883-0.099,9.931,1.051,14.612c2.491,10.154,5.44,20.225,8.797,30.127c2.503,7.386,3.037,14.529,0.886,22.023
	 C296.121,570.525,296.883,572.6,297.066,574.51z"/>
</g>

<g id="svg-person-6-off" class="click-path" cursor="none" pointer-events="all" transform="translate(1320,-150)">
 <path style="fill:#ffcc00; opacity: 0;" d="M220,898c-22,0-44,0-66,0c-0.324-1.455-0.705-2.899-0.964-4.365c-3.338-18.867-4.882-37.852-6.167-57.006
	 c-2.382-35.541-6.856-70.969-11.309-106.336c-3.283-26.076-7.868-51.989-11.973-77.959c-1.344-8.501-1.789-16.834,1.427-25.102
	 c0.792-2.036,0.582-4.557,0.46-6.835c-0.334-6.251-0.82-12.497-1.338-18.736c-0.351-4.229,0.505-9.335-1.56-12.492
	 c-5.527-8.452-12.376-16.036-18.598-24.044c-1.075-1.383-2.516-3.285-2.302-4.729c1.007-6.812-2.952-8.717-8.458-9.645
	 c-2.454-0.412-4.804-1.584-7.259-1.828c-9.581-0.949-15.306-6.713-19.049-14.938c-4.417-9.705-9.261-19.271-12.847-29.282
	 c-4.556-12.718-7.785-25.912-4.428-39.556c0.887-3.605,3.533-6.742,4.794-10.298c5.228-14.744,10.13-29.603,15.357-44.346
	 c3.554-10.021,6.724-20.229,14.05-28.483c2.152-2.424,3.403-5.71,4.812-8.72c3.723-7.957,8.333-15.119,15.898-20.072
	 c1.517-0.993,3.392-3.004,3.359-4.508c-0.105-4.775,2.796-6.42,6.468-7.565c8.873-2.766,18.008-4.858,26.603-8.305
	 c11.867-4.759,23.319-10.546,34.977-15.833c8.979-4.072,12.711-14.253,8.754-23.341c-1.65-3.789-2.843-7.809-3.884-11.817
	 c-0.745-2.866-0.454-6.06-4.816-6.27c-0.751-0.036-1.906-2.22-2.006-3.48c-0.513-6.471-0.83-12.962-1.03-19.451
	 c-0.092-2.987-0.122-6.047,3.667-7.387c0.798-0.282,1.436-2.161,1.459-3.318c0.284-14.164,4.756-26.433,15.736-35.904
	 c0.854-0.736,1.351-1.884,2.026-2.832c3.927-5.508,8.648-9.479,15.297-12.074c9.105-3.554,17.68-5.665,26.833-1.022
	 c4.206,2.134,8.306,4.524,12.641,6.352c8.633,3.641,11.608,10.765,12.609,19.292c0.33,2.805,0.301,5.746,1.183,8.374
	 c3.669,10.935,4.253,21.782-0.386,32.856c5.639,1.942,4.371,5.941,3.305,9.902c-1.508,5.608-2.923,11.242-4.541,16.818
	 c-0.322,1.113-1.422,2.904-2.082,2.869c-3.987-0.213-4.282,2.863-5.489,5.35c-1.668,3.439-3.458,6.84-5.478,10.082
	 c-3.437,5.515-1.888,13.034,4.042,15.453c11.379,4.644,22.964,8.788,34.506,13.024c11.082,4.067,22.236,7.937,33.306,12.037
	 c1.453,0.539,3.136,1.662,3.787,2.974c5.166,10.404,10.241,20.858,15.091,31.413c10.216,22.23,20.349,44.499,30.31,66.843
	 c1.225,2.748,1.902,6.127,1.609,9.093c-1.077,10.895-2.639,21.743-4.104,32.596c-0.22,1.624-0.894,3.187-1.372,4.773
	 c-1.336,4.436-2.826,8.831-3.98,13.313c-1.269,4.928-1.574,10.202-3.468,14.85c-3.568,8.761-8.268,17.058-11.913,25.792
	 c-1.896,4.543-4.547,7.121-9.193,8.852c-5.334,1.988-11.645,4.107-14.921,8.238c-5.457,6.884-8.983,15.342-12.948,23.324
	 c-0.669,1.346,0.248,3.75,0.943,5.457c3.005,7.368,4.878,14.632,1.476,22.524c-1.519,3.523-3.522,8.001-2.551,11.21
	 c2.696,8.907,3.413,17.338,2.604,26.822c-1.779,20.867-1.475,41.922-1.733,62.903c-0.188,15.326,0.318,30.661,0.098,45.985
	 c-0.474,32.858,0.7,65.627,4.377,98.295c1.507,13.395,2.862,26.807,4.287,40.211c-27.333,0-54.667,0-82,0
	 c0.658-16.604,1.18-33.213,2.007-49.808c1.243-24.977,0.497-49.871-2.171-74.732c-0.958-8.922-0.738-18.024-2.342-26.811
	 c-2.416-13.249-5.946-26.296-9.059-39.415c-0.22-0.926-0.891-1.744-1.771-3.4c-0.592,1.926-1.02,2.838-1.142,3.787
	 c-1.5,11.649-2.96,23.304-4.411,34.958c-0.081,0.654,0.02,1.33,0.006,1.994c-0.371,17.914-0.395,35.846-1.254,53.736
	 c-0.523,10.903-3.523,21.681-0.867,32.714c0.517,2.146-0.315,4.597-0.393,6.911c-0.158,4.774-0.594,9.578-0.264,14.324
	 C217.4,867.517,218.758,882.754,220,898z M116.896,434.548c-0.561,0.117-1.121,0.234-1.681,0.351
	 c-0.197,2.208-0.408,4.415-0.588,6.624c-0.711,8.719-3.957,12.688-10.958,14.576c-2.651,0.715-4.948,2.745-7.407,4.176
	 c2.036,1.862,3.911,3.955,6.153,5.52c2.198,1.534,5.217,2.506,3.666,5.943c-1.856,4.113,0.227,7.259,1.595,10.841
	 c1.728,4.524,2.489,9.412,4.097,13.991c1.963,5.589,4.372,11.021,6.588,16.522c0.695-0.159,1.39-0.317,2.085-0.476
	 c0.426-2.673,0.954-5.334,1.261-8.02c2.135-18.661,8.13-37.201,1.648-56.135C121.675,443.553,120.701,438.34,116.896,434.548z
		M304.021,502.468c0.711,0.189,1.423,0.379,2.134,0.569c2.662-3.93,6.199-7.553,7.722-11.883
	 c1.313-3.735,2.977-8.137-0.41-12.553c-1.526-1.99-0.794-5.742-1.003-8.701c-0.159-2.25,0.32-4.678-0.359-6.738
	 c-2.853-8.642-3.479-17.179-0.439-25.925c0.614-1.767,0.089-3.93,0.089-5.911c-0.498-0.06-0.996-0.12-1.494-0.179
	 c-2.57,9.034-6.412,17.93-7.42,27.135C301.231,472.957,299.801,487.931,304.021,502.468z"/>
</g>

<g id="svg-person-0-on" class="unclick-path" cursor="none" pointer-events="all" transform="translate(0,-152)" display="none">
 <path style="fill:#ff0000; opacity: 0;" d="M280,902c-35.667,0-71.333,0-107,0c-0.171-1.971-0.302-3.946-0.519-5.911c-0.783-7.079-2.593-14.21-2.203-21.221
	 c1.054-18.922,3.049-37.791,4.646-56.683c0.168-1.987,0.312-3.994,0.23-5.981c-0.314-7.519-0.72-15.033-1.106-22.548
	 c-0.102-1.987-0.062-4.008-0.425-5.95c-2.431-13.026-5.128-26.005-7.41-39.057c-4.562-26.097-9.583-52.14-13.078-78.384
	 c-1.846-13.855-0.528-28.107-1.352-42.138c-0.352-5.987-2.465-11.884-3.951-17.778c-0.196-0.778-1.362-1.39-2.181-1.92
	 c-3.392-2.195-5.022-5.203-4.555-9.287c2.089-18.25,4.335-36.484,6.138-54.762c0.528-5.352,0.167-10.875-0.463-16.24
	 c-1.332-11.338-3.137-22.621-4.694-33.933c-0.697-5.066-1.265-10.15-1.892-15.226c-2.306,0.991-3.2,2.124-4.153,3.205
	 c-4.937,5.602-9.602,11.482-14.916,16.701c-4.946,4.858-10.401,9.004-17.651,10.587c-14.648,3.198-19.624,1.372-25.748-12.207
	 c-3.047-6.759-5.283-13.976-7.067-21.188c-2.262-9.141-5.209-18.515-5.042-27.737c0.16-8.805,3.901-17.554,6.146-26.308
	 c0.613-2.39,1.947-4.663,2.189-7.066c0.614-6.103,0.598-12.27,1.25-18.367c0.27-2.525,0.967-5.516,2.581-7.278
	 c3.271-3.573,2.519-6.964,0.088-9.883c-11.84-14.218-20.13-30.456-27.278-47.325c-2.238-5.281-5.965-10.854-0.71-16.634
	 c0.284-0.312,0.405-1.009,0.276-1.426c-2.239-7.251-0.07-12.323,5.458-17.915c3.753-3.797,6.523-6.467,11.839-6.075
	 c1.592,0.118,3.252-0.323,4.847-0.667c6.126-1.322,9.964,0.017,13.268,5.179c1.681,2.626,2.944,5.535,4.249,8.384
	 c1.478,3.229,2.789,6.533,4.204,9.876c7.94-4.789,12.557-3.54,16.434,3.97c1.452,2.811,2.8,5.674,4.269,8.476
	 c8.105,15.458,12.501,31.363,6.715,48.798c-0.817,2.463-0.113,5.432-0.113,9.622c8.132-13.466,16.367-24.992,27.479-34.24
	 c11.535-9.6,25.784-12.337,40.124-15.866c-0.615-1.351-0.783-2.224-1.297-2.771c-3.718-3.957-3.939-8.487-2.541-13.424
	 c0.351-1.236-0.024-2.661,0.185-3.958c0.599-3.716,1.303-7.417,2.012-11.115c0.555-2.894,1.421-5.749,1.731-8.665
	 c1.47-13.827,2.294-27.745,4.368-41.477c1.204-7.975,4.05-15.755,6.663-23.452c3.665-10.798,10.036-19.625,19.615-26.227
	 c8.717-6.007,18.907-6.955,28.67-9.315c9.927-2.401,19.301-0.805,28.009,5.007c11.171,7.457,16.442,19.42,22.97,30.209
	 c3.727,6.161,4.844,13.918,7.014,20.995c1.26,4.105,2.637,8.226,3.325,12.443c1.139,6.981,2.221,13.655-2.38,20.567
	 c-2.594,3.896-2.778,10.125-2.345,15.155c0.946,10.968,2.658,21.779-2.454,32.29c-0.55,1.13,0.333,4.174,1.34,4.645
	 c5.938,2.777,11.932,6.408,18.237,7.241c17.476,2.308,28.738,12.556,36.208,27.175c4.399,8.609,6.262,18.476,9.822,27.559
	 c6.536,16.675,7.667,34.235,8.722,51.746c0.7,11.623-0.336,23.348,0.321,34.976c0.396,6.999,2.614,13.886,3.88,20.848
	 c0.406,2.233,0.537,4.546,0.514,6.82c-0.023,2.291-0.711,4.599-0.559,6.862c0.522,7.768,1.957,15.533,1.787,23.272
	 c-0.213,9.734-1.796,19.431-2.527,29.164c-0.405,5.396-0.257,10.834-0.406,16.252c-0.036,1.316-0.162,2.648-0.415,3.939
	 c-2.192,11.214-4.623,22.282-2.797,33.98c0.648,4.153-0.766,9.814-3.398,13.004c-3.502,4.242-3.714,8.424-3.062,12.886
	 c1.778,12.147,3.761,24.21-1.62,36.017c-0.467,1.023-0.438,2.268-0.685,3.398c-1.673,7.675-4.959,14.033-12.928,17.048
	 c-3.563,1.349-6.848,3.421-10.314,5.044c-10.066,4.712-11.068,4.435-17.541-4.408c-0.128-0.174-0.559-0.127-0.906-0.195
	 c-0.279,0.399-0.7,0.764-0.823,1.211c-7.769,28.115-15.62,56.209-23.176,84.382c-1.656,6.174-1.812,12.751-3.476,18.921
	 c-1.385,5.131-1.877,10.148-2.166,15.426c-0.336,6.135-2.349,12.197-3.809,18.249c-4.312,17.876-8.779,35.715-12.986,53.615
	 C279.184,897.143,279.871,899.638,280,902z"/>
</g>

<g id="svg-person-1-on" class="unclick-path" cursor="none" pointer-events="all" transform="translate(211,-156)" display="none">
 <path style="fill:#ff0000; opacity: 0;" d="M172,906c-27.333,0-54.667,0-82,0c0.024-5.83-0.35-11.695,0.168-17.481c0.763-8.53-1-17.344,3.792-25.505
	 c1.858-3.166,1.421-7.656,2.131-11.525c0.68-3.707,1.881-7.363,2.143-11.091c0.291-4.151,1.024-8.965-0.656-12.407
	 c-3.024-6.196-4.507-12.383-4.511-19.119c-0.003-5.998,0.537-12.07-0.206-17.979c-2.723-21.676-6.464-43.236-8.682-64.957
	 c-1.624-15.899-1.535-31.979-2.036-47.985c-0.097-3.113,0.474-6.274,0.966-9.377c1.316-8.293,2.279-16.688,4.35-24.795
	 c1.022-4,5.197-7.216,6.14-11.213c1.584-6.715,1.523-13.8,2.553-20.67c0.625-4.172,1.238-8.658,3.241-12.229
	 c2.149-3.832,3.447-7.01,1.914-11.395c-0.693-1.982-0.485-5.023,0.616-6.756c3.865-6.082,5.615-12.541,5.659-19.684
	 c0.02-3.279,0.963-6.543,1.194-9.834c0.724-10.284,6.394-20.249,1.37-30.965c-1.64-3.499-2.875-5.959-7.182-6.135
	 c-11.386-0.463-20.075-7.149-23.83-18.174c-2.674-7.852-5.372-15.713-7.588-23.701c-2.915-10.506-5.617-20.938-2.695-32.182
	 c2.742-10.554,4.454-21.406,6.111-32.204c2.567-16.725,9.084-31.591,20.451-44.067c7.921-8.694,18.401-13.374,29.588-16.449
	 c5.277-1.45,10.993-1.859,15.856-4.136c8.803-4.123,17.383-8.887,25.496-14.233c3.015-1.987,5.828-6.158,6.352-9.686
	 c1.366-9.213-3.142-18.074-8.648-24.008c-6.299-6.789-9.842-14.452-13.453-22.291c-2.836-6.156-1.474-12.539,1.917-18.568
	 c1.7-3.023,2.885-6.543,3.396-9.974c0.583-3.914-0.382-8.069,0.282-11.957c1.214-7.112,1.865-14.735,5.003-21.021
	 c7.812-15.644,20.988-25.032,38.461-27.596c14.42-2.116,27.927-0.334,38.393,11.269c3.531,3.915,6.396,8.571,10.393,11.897
	 c8.266,6.881,10.611,15.871,11.611,25.936c0.645,6.479-0.207,13.425,5.9,18.704c3.406,2.945,3.774,8.016,2.459,12.655
	 c-0.812,2.867-1.324,5.912-2.668,8.516c-2.623,5.081-4.734,11.191-8.936,14.471c-3.99,3.116-6.619,5.868-7.203,10.715
	 c-0.375,3.121-0.934,6.225-1.163,9.354c-0.055,0.749,0.712,2.062,1.375,2.28c5.855,1.93,9.013,6.812,13.112,10.87
	 c3.715,3.676,8.994,5.836,13.721,8.413c13.399,7.304,27.8,11.748,42.738,14.576c5.363,1.015,10.665,2.692,13.474,7.609
	 c5.003,8.756,10.535,17.476,13.739,26.924c3.8,11.206,5.971,22.951,6.659,35.047c0.771,13.525,0.821,26.775-2.022,40.07
	 c-4.896,22.886-16.852,42.012-30.971,60.118c-1.906,2.444-3.181,5.568-4.053,8.579c-0.928,3.208-0.861,6.689-1.546,9.985
	 c-0.534,2.578-2.72,5.36-2.156,7.526c2.8,10.758-1.617,22.13,3.084,32.685c0.677,1.519,0.815,4.138-0.053,5.341
	 c-4.832,6.701-3.012,12.953,0.106,19.625c3.732,7.985-0.229,17.896,6.012,25.454c0.644,0.778,0.608,3.112-0.064,3.823
	 c-4.648,4.918-0.555,8.688,1.359,12.775c1.405,3,2.819,6,4.129,9.043c3.471,8.064,2.998,16.6,2.675,25.052
	 c-0.396,10.373,2.508,20.813-0.831,31.138c-1.267,3.92-2.323,7.964-2.917,12.033c-2.268,15.551-4.227,31.146-6.452,46.704
	 c-2.604,18.198-6.515,36.248-5.717,54.812c0.097,2.247-0.077,4.89-1.167,6.732c-3.289,5.563-2.028,11.072-0.55,16.618
	 c1.403,5.264,5.789,9.288,4.903,15.702c-0.785,5.694,0.44,11.678,0.892,17.524c0.152,1.965,0.629,3.908,1.004,5.854
	 c1.602,8.323,0.067,17.285,5.066,24.917c-28,0-56,0-84,0c0.691-4.187,1.848-8.361,1.959-12.562
	 c0.151-5.725-1.285-11.569-0.584-17.18c0.735-5.87-1.332-10.134-4.404-14.562c-1.067-1.539-2.14-3.973-1.662-5.521
	 c1.471-4.768-0.701-8.28-2.764-12.094c-1.158-2.143-1.982-4.57-2.445-6.968c-2.418-12.494-4.17-25.139-7.111-37.504
	 c-3.562-14.976-7.955-29.761-12.259-44.55c-1.473-5.061-3.757-9.886-5.671-14.818c-0.451-0.032-0.902-0.064-1.354-0.097
	 c-5.361,16.554-11.762,32.858-15.788,49.729c-3.907,16.37-5.072,33.385-10.746,49.423c-0.268,0.758,0.01,1.711-0.267,2.461
	 c-1.331,3.604-2.415,7.364-4.271,10.688c-1.616,2.894-2.487,5.002-1.019,8.561c1.127,2.729-0.104,6.531-0.635,9.799
	 c-0.219,1.351-1.977,2.56-1.964,3.822C169.118,885.16,164.376,896.191,172,906z"/>
</g>

<g id="svg-person-2-on" class="unclick-path" cursor="none" pointer-events="all" transform="translate(427,-154)" display="none">
 <path style="fill:#ff0000; opacity: 0;" d="M150,903c-25,0-50,0-75,0c3.449-11.7,5.281-23.885,8.851-33.829c0.944-5.501,1.616-9.498,2.321-13.489
	 c0.255-1.443,0.696-2.86,0.866-4.312c1.036-8.877,1.333-17.908,3.22-26.596c1.705-7.85,5.833-15.165,7.618-23.007
	 c2.38-10.454,3.558-21.186,5.197-31.807c1.565-10.139,3.015-20.296,4.6-30.432c1.406-8.988,2.942-17.955,4.397-26.935
	 c1.587-9.8,2.716-19.698,4.833-29.381c2.358-10.788,5.643-21.372,8.42-32.072c0.395-1.523,0.511-3.259,0.217-4.794
	 c-0.755-3.945-0.836-7.537,2.391-10.627c0.804-0.77,1.205-2.367,1.151-3.557c-0.259-5.779-0.417-11.598-1.29-17.297
	 c-0.358-2.338-2.302-4.5-3.746-6.588c-2.146-3.105-6.327-6.041-6.386-9.109c-0.146-7.658-5.498-9.715-10.385-13.085
	 c-8.304-5.724-16.436-11.743-24.25-18.116c-4.148-3.385-3.849-6.971-0.761-11.412c4.352-6.26,8.586-12.604,12.708-19.016
	 c0.938-1.461,2.028-3.571,1.641-5.001c-1.281-4.729-3.666-9.174-4.797-13.925c-3.139-13.177-7.895-26.402-8.224-39.703
	 c-0.402-16.233,3.122-32.556,4.798-48.854c0.568-5.526,0.06-11.226,1.152-16.622c1.668-8.244,3.94-16.412,6.595-24.399
	 c5.544-16.675,11.412-33.246,17.412-49.763c0.791-2.177,2.784-4.491,4.834-5.529c6.299-3.191,12.813-6.01,19.415-8.525
	 c3.005-1.145,6.413-1.235,9.958-1.861c-0.45-1.862-0.809-3.449-1.219-5.023c-2.031-7.802-2.785-15.825,2.18-22.571
	 c8.552-11.622,9.325-25.212,11.387-38.605c1.122-7.286-2.009-15.723,5.552-21.464c0.71-0.54,0.192-2.562,0.449-3.856
	 c1.554-7.815,4.565-15.107,10.614-20.345c4.607-3.989,10.477-6.026,15.259-10.43c5.484-5.05,13.286-8.164,20.595-10.533
	 c17.144-5.558,33.465-2.353,48.632,7.035c9.388,5.811,14.894,14.972,20.229,24.2c8.245,14.258,13.005,29.774,16.523,45.764
	 c1.658,7.534,3.681,9.028,11.057,9.599c0.985,0.076,2.372-0.053,2.874,0.522c4.013,4.602,8.843,8.871,11.434,14.208
	 c1.977,4.071,0.84,9.581,1.508,14.392c0.304,2.188,1.163,4.632,2.574,6.264c2.842,3.286,4.047,9.584,0.752,12.138
	 c-6.489,5.03-9.366,11.16-8.586,19.208c0.061,0.618-0.408,1.269-0.486,1.921c-0.406,3.378,0.061,5.93,3.931,7.493
	 c4.127,1.667,7.636,4.442,9.091,9.216c0.542,1.779,1.926,3.738,3.489,4.696c7.738,4.739,8.85,12.35,9.32,20.304
	 c0.431,7.29,1.076,14.584,1.096,21.877c0.035,13.913-0.171,27.831-0.536,41.74c-0.308,11.727-2.142,23.443,1.56,35.06
	 c0.943,2.963,0.626,6.583,0.013,9.731c-0.978,5.021-2.587,9.93-4.14,14.82c-0.579,1.826-1.409,3.792-2.708,5.129
	 c-4.368,4.496-8.952,8.786-13.552,13.049c-1.712,1.587-3.137,2.734-1.138,5.3c5.097,6.539,9.833,13.358,14.893,19.926
	 c6.096,7.915,5.115,16.443-2.445,23.078c-1.574,1.381-2.992,4.121-2.83,6.1c0.835,10.221,2.068,20.414,3.429,30.582
	 c1.646,12.302,4.964,24.558,5.05,36.852c0.152,21.867-5.611,42.896-12.008,63.784c-3.662,11.957-5.728,24.493-7.511,36.913
	 c-2.045,14.25-2.944,28.662-4.412,42.997c-1.531,14.966-3.097,29.928-4.744,44.881c-1.152,10.468,1.059,20.851-0.568,31.526
	 C312.77,881.281,314.646,892.257,315,903c-23.333,0-46.666,0-70,0c0.355-3.627,1.147-7.273,0.979-10.876
	 c-0.361-7.693-1.494-15.354-1.779-23.046c-0.184-5.003,2.425-10.384-2.768-14.38c-0.697-9.735-1.712-19.462-1.967-29.209
	 c-0.139-5.244,1.508-10.523,1.502-15.786c-0.012-11.778-0.148-23.587-1.003-35.327c-0.757-10.396-2.312-20.755-3.985-31.055
	 c-0.973-5.994-2.87-11.839-4.357-17.75c-0.85-3.378-1.709-6.753-2.826-11.159c-1.298,2.558-2.043,4.021-2.785,5.486
	 c-8.785,17.345-17.48,34.734-26.387,52.017c-5.474,10.622-12.627,20.589-16.631,31.713c-7.689,21.36-13.54,43.379-20.48,65.02
	 c-1.422,4.434-4.811,8.223-6.348,12.639C153.695,888.38,152.014,895.748,150,903z"/>
</g>

<g id="svg-person-3-on" class="unclick-path" cursor="none" pointer-events="all" transform="translate(652,-156)" display="none">
 <path style="fill:#ff0000; opacity: 0;" d="M161,903c-31.667,0-63.333,0-95,0c0.197-2.173,0.116-4.417,0.654-6.502c0.931-3.605,2.409-7.068,3.341-10.674
	 c0.574-2.219,0.667-4.584,0.792-6.893c0.487-9.038,0.795-18.088,1.403-27.117c0.195-2.908,0.627-5.979,1.785-8.608
	 c2.739-6.226,6.251-12.116,8.912-18.371c1.584-3.724,2.83-7.847,3.033-11.851c0.506-9.979,0.939-19.824,6.189-28.791
	 c0.925-1.581,0.773-3.849,0.932-5.814c0.76-9.419,1.423-18.846,2.183-28.265c1.252-15.519,2.786-31.019,3.771-46.554
	 c1.239-19.523,1.601-39.11,3.235-58.595c0.751-8.966,3.177-17.884,5.707-26.571c1.565-5.377,2.495-9.732-2.97-13.238
	 c-4.132-2.65-7.808-7.062-12.241-7.963c-7.49-1.521-11.958-5.769-14.644-11.971c-5.59-12.91-9.023-26.832-17.77-38.233
	 c-6.501-8.474-10.926-17.625-12.081-28.412c-0.539-5.034-2.662-9.883-3.422-14.913c-0.83-5.489-1.569-11.144-1.12-16.626
	 c0.371-4.53,2.188-9.055,3.957-13.336c6.659-16.116,13.323-32.239,20.428-48.161c10.086-22.602,20.249-45.18,30.984-67.477
	 c7.183-14.917,18.239-26.474,33.827-32.992c8.428-3.525,17.005-6.693,25.516-10.021c9.056-3.541,18.114-7.081,27.649-10.808
	 c-4.014-6.508-5.057-13.688-11.514-17.937c-1.933-1.271-2.7-4.808-3.319-7.466c-0.935-4.014-1.502-8.15-1.807-12.265
	 c-0.464-6.255-0.993-12.557-0.707-18.802c0.278-6.074,1.848-12.08,2.308-18.157c0.635-8.396,2.979-15.748,9.065-21.998
	 c9.408-9.663,21.314-14.452,33.699-18.469c2.17-0.704,4.565-1.028,6.852-1.007c13.026,0.123,24.344,5.409,35.713,11.214
	 c9.402,4.8,12.705,12.923,15.562,21.987c2.015,6.393,4.795,12.542,7.125,18.841c0.792,2.139,1.698,4.384,1.782,6.609
	 c0.243,6.442,0.305,12.907,0.041,19.346c-0.265,6.476-0.685,13.037-7.033,17.131c-2.649,1.708-1.706,3.611-0.451,5.947
	 c3.359,6.252,6.206,12.779,9.559,19.034c1.645,3.066,3.395,6.547,6.072,8.504c11.241,8.218,22.848,15.938,34.329,23.829
	 c13.697,9.415,24.855,21.083,31.051,36.719c2.669,6.737,4.425,13.869,6.192,20.923c5.497,21.941,7.732,44.354,9.407,66.849
	 c0.7,9.411,1.751,18.795,2.642,28.191c1.438,15.171,2.946,30.336,4.268,45.518c0.374,4.301-0.021,8.667,0.316,12.975
	 c1.391,17.783,1.314,35.471-3.292,52.855c-3.726,14.055-9.153,27.58-10.471,42.375c-0.629,7.072,1.631,16.141-7.143,20.84
	 c-0.276,0.148-0.248,0.928-0.3,1.42c-0.363,3.457-1.014,6.916-1.007,10.375c0.022,10.965-0.765,21.278-5.475,31.914
	 c-5.415,12.227-13.863,20.511-24.389,27.246c-6.076,3.889-9.031,8.406-9.311,15.671c-0.599,15.566-1.393,31.161-3.096,46.635
	 c-0.842,7.646-0.175,14.806,1.443,22.139c0.633,2.866,1.04,6.048,0.468,8.867c-2.333,11.489-5.98,22.627-6.536,34.569
	 c-0.58,12.449-9.472,23.281-8.097,36.334c-27.667,0-55.333,0-83,0c-2.257-9.808,0.21-19.025,3.465-28.162
	 c0.822-2.31,2.234-4.801,1.963-7.036c-0.857-7.051-2.482-14.004-3.633-21.024c-1.659-10.116-3.59-20.217-4.592-30.404
	 c-0.74-7.518,0.422-15.225-0.34-22.738c-1.336-13.151-3.045-26.303-5.449-39.297c-2.178-11.776-4.885-23.365-2.553-35.445
	 c0.407-2.113-0.209-4.422-0.419-7.674c-1.358,1.506-2.071,2-2.375,2.678c-5.924,13.178-12.402,26.147-17.548,39.625
	 c-8.169,21.399-10.209,44.103-12.673,66.688c-1.217,11.162-3.235,22.238-4.979,33.339c-1.232,7.84-2.793,15.631-3.879,23.49
	 C162.795,885.665,161.979,894.344,161,903z M316.511,591.801c-0.655,0.047-1.311,0.094-1.966,0.14
	 c1.005,13.338,2.009,26.676,3.014,40.014C319.9,618.383,319.352,605.012,316.511,591.801z"/>
</g>

<g id="svg-person-4-on" class="unclick-path" cursor="none" pointer-events="all" transform="translate(930,-152)" display="none">
 <path style="fill:#ff0000; opacity: 0;" d="M253,904c-55,0-110,0-165,0c1.367-4.057,2.711-8.121,4.111-12.166c0.859-2.483,2.461-4.908,2.571-7.411
	 c0.217-4.949-0.507-9.933-0.595-14.906c-0.198-11.269-0.147-11.281-11.281-12.664c-7.084-0.88-10.979-4.55-10.636-10.11
	 c0.241-3.912,0.715-7.812,0.852-11.728c0.717-20.426,1.417-40.853,1.991-61.283c0.159-5.638-1.754-8.281-7.186-8.604
	 c-10.294-0.614-17.014-6.411-22.782-14.08c-2.081-2.766-5.418-5.084-6.313-8.152c-2.978-10.208-4.81-20.679-3.082-31.436
	 c1.522-9.475,3.519-18.925,4.198-28.465c0.569-7.99-0.392-16.1-0.802-24.149c-0.618-12.097-1.311-24.19-2.045-36.282
	 c-0.291-4.797-1.063-9.579-1.12-14.374c-0.159-13.438-0.015-26.879-0.09-40.317c-0.02-3.496,0.674-7.585-0.854-10.357
	 c-2.897-5.26-3.836-10.303-1.651-15.697c5.133-12.673,6.895-25.853,6.83-39.42c-0.033-6.803,0.469-13.608,0.662-20.414
	 c0.315-11.115,0.532-22.234,0.874-33.348c0.28-9.078,0.028-18.239,1.221-27.203c1.131-8.498,4.138-16.728,5.767-25.183
	 c1.936-10.045,5.179-19.476,10.297-28.363c6.883-11.952,13.357-24.138,20.141-36.148c9.551-16.907,19.069-33.835,28.896-50.582
	 c7.564-12.889,15.677-25.335,19.645-40.117c4.146-15.446,12.044-28.892,24.016-40.034c13.73-12.779,30.177-18.922,47.644-14.159
	 c19.553,5.332,40.006,9.789,56.264,23.993c5.799,5.066,10.125,10.59,11.95,17.645c2.106,8.144,3.154,16.585,4.276,24.949
	 c0.335,2.496-0.27,5.28-1.062,7.733c-1.721,5.326-4.659,10.376-5.628,15.801c-2.18,12.205-3.601,24.554-5.016,36.88
	 c-0.367,3.194-0.793,8.226,0.925,9.454c4.402,3.148,9.822,5.508,15.155,6.555c6.34,1.245,9.963,3.231,12.468,8.992
	 c1.214,2.792,3.048,5.587,5.302,7.595c4.072,3.627,8.855,6.45,12.986,10.02c3.094,2.673,5.757,5.886,8.388,9.045
	 c6.797,8.16,12.209,17.881,24.134,19.932c1.818,0.313,3.665,1.67,5.068,2.999c9.519,9.015,19.028,18.046,28.322,27.291
	 c5.237,5.209,9.184,11.251,10.411,18.845c0.316,1.959,1.681,3.981,3.088,5.482c2.913,3.107,3.089,6.3,1.701,10.112
	 c-0.52,1.428-0.408,3.46,0.227,4.846c1.021,2.228,2.774,4.109,4.111,6.205c2.204,3.456,5.762,6.797,6.198,10.487
	 c1.127,9.545,1.277,19.277-4.31,28.013c-8.857,13.85-17.459,27.864-26.365,41.684c-14.752,22.89-34.55,41.572-52.327,61.924
	 c-4.456,5.102-10.804,8.552-16.485,12.918c1.593,3.602,3.288,7.202,4.795,10.881c8.631,21.07,17.031,42.236,25.885,63.213
	 c5.783,13.701,12.218,27.129,18.331,40.692c3.472,7.702,6.317,15.755,10.49,23.053c3.841,6.716,5.07,12.315,0.064,18.312
	 c-3.219,3.855-8.574,5.857-12.177,9.481c-3.818,3.841-7.346,5.308-11.426,2.193c-2.05,4.078-3.224,10.321-5.996,11.139
	 c-6.254,1.843-11.493,4.808-16.633,8.418c-0.361,0.254-0.979,0.248-1.463,0.206c-3.594-0.311-4.018,1.882-3.987,4.727
	 c0.064,5.998,0.388,12.044-0.256,17.978c-0.272,2.515-2.206,6.16-4.263,6.92c-5.806,2.147-12.049,3.143-18.149,4.452
	 c-8.053,1.728-16.198,3.075-24.152,5.163c-1.834,0.481-3.842,3.074-4.429,5.086c-3.727,12.774-6.84,25.671-5.824,39.198
	 c0.347,4.625,0.055,9.298,0.055,14.321C250.676,902.243,251.838,903.122,253,904z"/>
</g>

<g id="svg-person-5-on" class="unclick-path" cursor="none" pointer-events="all" transform="translate(1107,-170)" display="none">
 <path style="fill:#ff0000; opacity: 0;" d="M234.793,869.536c-9.785-9.783-6.482-21.537-6.943-32.843
	 c-0.354-8.711-2.504-17.347-3.815-26.021c-1.435-9.486-2.823-18.98-4.665-28.528c-4.656,10.241-10.534,19.799-11.573,31.445
	 c-0.761,8.518-3.063,16.896-4.64,25.344c-0.264,1.414-0.325,2.864-0.49,4.297c-0.49,4.241-0.452,8.636-1.624,12.681
	 c-1.244,4.292-1.136,7.696,1.165,11.755c6.132,10.819,4.176,12.548-6.892,12.949c-20.805,0.755-41.655,0.268-62.486,0.215
	 c-1.797-0.005-3.594-0.605-5.389-0.943c-5.27-0.993-5.65-2.996-3.71-8.024c1.862-4.825,3.102-10.205,3.132-15.35
	 c0.049-8.449,0.818-16.549,4.375-24.304c2.903-6.33-0.586-11.667-4.034-16.08c-6.637-8.495-7.852-18.479-7.86-28.253
	 c-0.015-17.254-3.326-33.969-5.848-50.849c-0.685-4.584-1.387-9.231-1.351-13.845c0.122-15.398,0.316-30.807,1.022-46.188
	 c0.299-6.515-1.403-11.867-5.133-17.062c-8.01-11.151-15.5-22.481-20.217-35.694c-5.186-14.525-12.754-28.202-17.91-42.736
	 c-4.535-12.783-7.898-26.107-10.354-39.455c-1.316-7.151-0.013-14.896,0.788-22.3c1.656-15.308,4.886-30.541,5.25-45.857
	 c0.203-8.51,1.99-15.958,4.378-23.863c4.31-14.269,6.811-29.089,11.235-43.315c2.583-8.306,7.367-15.939,11.289-23.811
	 c1.842-3.698,3.265-8.035,6.158-10.683c4.915-4.498,10.477-8.619,16.417-11.601c15.272-7.666,30.9-14.624,46.392-21.854
	 c2.093-0.977,4.228-1.864,6.32-2.841c4.49-2.097,5.117-5.906,3.863-10.035c-2.312-7.613-4.974-15.119-7.47-22.676
	 c-2.627-7.955-5.264-15.906-7.809-23.887c-0.342-1.074-0.364-2.336-0.213-3.469c1.596-11.948,2.706-23.996,5.021-35.806
	 c4.205-21.453,18.947-33.538,38.832-39.287c10.445-3.02,20.98-0.025,30.966,4.563c17.467,8.025,26.347,21.792,29.039,40.435
	 c1.029,7.125,3.638,14.01,4.921,21.114c0.621,3.436,0.956,7.681-0.504,10.597c-4.639,9.266-4.595,19.543-7.413,29.152
	 c-1.259,4.29-2.539,8.577-3.979,12.808c-2.732,8.028-0.66,12.197,7.028,15.409c15.781,6.594,31.615,13.108,47.088,20.377
	 c7.425,3.489,14.101,8.585,21.056,13.045c1.087,0.697,2.225,1.73,2.716,2.875c5.304,12.349,11.308,24.482,15.461,37.215
	 c4.151,12.727,6.224,26.119,9.598,39.118c1.538,5.922,4.364,11.512,5.887,17.437c0.588,2.289,0.078,6.307-1.469,7.441
	 c-5.937,4.354-4.523,10.235-4.271,15.84c0.388,8.609,1.228,17.197,1.778,25.801c0.402,6.291,1.064,12.606,0.84,18.882
	 c-0.205,5.75-0.898,11.602-2.321,17.168c-6.442,25.197-15.235,49.544-27.146,72.731c-1.96,3.814-3.049,8.078-4.504,12.147
	 c-0.213,0.597-0.531,1.455-0.276,1.875c3.976,6.58-1.142,10.82-3.817,15.785c-1.277,2.371-2.661,5.146-2.595,7.702
	 c0.33,12.773,1.415,25.528,1.657,38.302c0.166,8.786-0.484,17.598-1.005,26.384c-0.393,6.611-0.937,13.23-1.806,19.795
	 c-1.652,12.476-3.88,24.88-5.327,37.377c-1.801,15.551-5.187,30.666-9.579,45.692c-1.417,4.846,0.387,10.787,1.304,16.127
	 c1.564,9.102,3.634,18.116,5.411,27.184c1.194,6.094-1.359,9.238-8.117,9.667c-4.482,0.285-8.995,0.109-13.495,0.112
	 c-12.666,0.009-25.333,0.107-37.996-0.047c-5.469-0.066-10.971-0.391-16.373-1.172c-1.914-0.276-3.58-2.258-5.359-3.461
	 c1.42-1.73,2.797-3.497,4.284-5.166C232.076,870.633,232.809,870.493,234.793,869.536z M119.685,583.35
	 c1.5-8.043,3.065-15.606,4.273-23.227c0.645-4.07,0.824-8.232,0.954-12.359c0.353-11.225,0.445-22.458,0.886-33.679
	 c0.239-6.09,2.814-12.364-2.136-18.246c-3.028,6.945-5.754,13.681-8.872,20.23c-4.387,9.213-5.086,18.09-2.138,28.293
	 C116.25,556.818,117.393,569.983,119.685,583.35z M306.619,532.151c0.562-0.178,1.124-0.357,1.686-0.536
	 c-1.973-7.915-3.944-15.83-6.213-24.935C298.044,517.325,304.086,524.326,306.619,532.151z"/>
</g>

<g id="svg-person-6-on" class="unclick-path" cursor="none" pointer-events="all" transform="translate(1332,-156)" display="none">
 <path style="fill:#00ff00; opacity: 0;" d="M178,906c-28.333,0-56.667,0-85,0c-0.084-1.434-0.444-2.915-0.2-4.29c0.617-3.474,1.681-6.87,2.25-10.349
	 c1.549-9.467,3.28-18.925,4.288-28.455c1.02-9.649,1.734-19.385,1.663-29.075c-0.042-5.688-2.52-11.334-2.778-17.05
	 c-0.704-15.546-1.106-31.119-1.08-46.682c0.036-21.453,0.828-42.906,0.793-64.358c-0.017-10.761-2.124-21.575-1.515-32.265
	 c0.703-12.334,2.86-24.658,5.304-36.801c2.504-12.443,6.119-24.662,9.21-36.83c-17.558-9.944-20.467-16.522-15.823-35.217
	 c1.92-7.732,3.86-15.462,5.98-23.141c0.97-3.514-0.039-4.709-3.638-5.743c-8.866-2.546-15.39-7.749-16.439-17.808
	 c-0.704-6.745-0.698-13.716-2.506-20.166c-5.749-20.499-8.307-41.276-7.427-62.51c0.185-4.457,1.222-9.048,0.467-13.331
	 c-0.958-5.435,0.427-9.69,3.239-14.075c1.258-1.962,1.908-4.505,2.202-6.863c1.316-10.536,2.612-21.077,7.801-30.58
	 c2.459-4.504,5.029-9.023,8.147-13.075c5.418-7.039,12.65-11.711,21.238-14.105c4.912-1.369,9.961-2.278,14.816-3.812
	 c9.628-3.042,19.14-6.451,28.749-9.555c5.961-1.925,10.313-9.038,7.765-14.887c-2.602-5.97-3.411-13.354-10.8-16.492
	 c-1.507-0.64-2.848-3.051-3.177-4.845c-1.374-7.483-3.328-15.059-3.197-22.568c0.176-10.124,2.013-20.224,3.274-30.317
	 c0.325-2.601,1.337-5.11,1.736-7.708c1.522-9.92,7.775-17.56,12.71-25.729c2.929-4.849,7.072-9.215,11.447-12.864
	 c3.737-3.117,8.504-5.073,12.977-7.205c2.294-1.093,5.064-2.316,7.408-1.984c10.452,1.479,20.869,3.296,31.2,5.466
	 c2.573,0.541,4.933,2.657,7.099,4.411c2.031,1.645,4.09,3.521,5.414,5.727c3.939,6.567,9.982,11.735,10.381,20.58
	 c0.414,9.148,2.901,18.204,4.484,27.3c0.527,3.035,0.908,6.106,1.633,9.094c0.766,3.159,2.826,6.302,2.628,9.342
	 c-0.568,8.737-1.825,17.445-3.228,26.097c-0.26,1.599-2.464,2.88-3.768,4.311c-1.78,1.956-3.82,3.741-5.26,5.922
	 c-1.354,2.049-1.9,4.611-3.1,6.784c-4.814,8.72-2.05,16.34,7.549,19.758c6.205,2.21,12.521,4.136,18.858,5.939
	 c7.967,2.267,15.922,4.708,24.033,6.3c13.152,2.582,23.346,8.966,29.917,20.816c0.552,0.995,1.739,1.665,2.189,2.682
	 c1.763,3.978,3.804,7.915,4.896,12.088c1.884,7.196,0.709,15.249,6.441,21.351c0.921,0.981,1.842,3.009,1.435,4.013
	 c-1.92,4.732,0.169,7.903,3.332,10.984c0.784,0.765,1.35,2.004,1.526,3.104c1.52,9.479,3.696,18.936,4.195,28.477
	 c0.824,15.787-0.137,31.652-5.021,46.801c-4.455,13.812-8.528,28.398-25.525,32.749c-1.007,0.257-2.201,2.346-2.188,3.569
	 c0.052,4.465,0.552,8.926,0.933,13.384c0.593,6.93,1.239,13.854,1.841,20.783c1.312,15.109-1.022,27.887-16.731,36.227
	 c-1.293,0.688-2.354,3.359-2.184,4.967c0.559,5.257,1.661,10.463,2.689,15.662c4.719,23.851,10.035,47.438,8.662,72.234
	 c-1.608,29.054-0.899,58.231-1.489,87.35c-0.156,7.761-1.167,15.528-2.172,23.243c-1.679,12.89-1.852,25.696-0.03,38.617
	 c1.013,7.191,1.62,14.614,1.033,21.82c-1.061,13.036,1.546,25.171,6.367,37.098c0.662,1.638,0.081,3.777,0.075,5.685
	 c-26.667,0-53.334,0-80,0c-0.16-1.609-0.457-3.22-0.451-4.829c0.015-3.337,0.664-6.741,0.199-9.996
	 c-0.908-6.375-3.572-12.694-3.422-18.987c0.4-16.891-3.296-32.927-8.088-48.854c-0.945-3.141-2.238-6.181-3.436-9.242
	 c-2.879-7.353-6.603-14.488-8.51-22.082c-2.905-11.568-4.564-23.45-6.752-35.199c-1.638,1.278-2.115,2.348-2.371,3.469
	 c-3.28,14.388-6.322,28.833-9.832,43.164c-6.048,24.691-8.885,49.843-11.491,75.054C180.896,887.699,179.301,896.834,178,906z"/>
</g>

</svg>
