<svg version="1.0" id="Layer_1" xmlns="http://www.w3.org/2000/svg" xmlns:xlink="http://www.w3.org/1999/xlink" x="0px" y="0px"
	 width="46px" height="46px" viewBox="0 0 46 46" style="enable-background:new 0 0 46 46;" xml:space="preserve">
<path style="fill:#FFFFFF;" d="M45,23c0,12.149-9.85,22-22,22S1,35.15,1,23C1,10.85,10.85,1,23,1S45,10.85,45,23"/>
<circle style="fill:none;stroke:#151011;stroke-width:2;stroke-miterlimit:10;" cx="23" cy="23" r="22"/>
<path style="fill:#4CA1CA;" d="M35.998,11.786c0.053-0.07,0.103-0.143,0.146-0.221l0.052-0.078l-0.01-0.006
	c0.115-0.236,0.182-0.5,0.182-0.78c0-0.985-0.798-1.783-1.781-1.783c-0.578,0-1.088,0.275-1.414,0.699L17.571,29.402l-7.529-6.494
	c-0.098-0.104-0.207-0.198-0.324-0.281l-0.01-0.008L9.707,22.62c-0.343-0.237-0.759-0.377-1.209-0.377
	c-1.176,0-2.131,0.953-2.131,2.131c0,0.534,0.198,1.021,0.523,1.395L6.889,25.77l9.473,10.457c0.389,0.519,1.007,0.854,1.704,0.854
	c0.697,0,1.314-0.336,1.703-0.854h0.001l0.011-0.015c0.041-0.056,0.08-0.114,0.116-0.175L35.998,11.786z"/>
</svg>
